# xmcd
#
# Track frame offsets: 
#        150
#        15312
#        29682
#        38631
#        60922
#        72104
#        85972
#        97847
#        109950
#        118979
#        131134
#        141244
#        156944
#        174480
#        187651
#        198859
#        211127
#        223627
#        232769
#        242099
#        263550
#
# Disc length: 3644 seconds
#
# Revision: 0
# Processed by: cddbd v1.5.1PL2 Copyright (c) Steve Scherf et al.
# Submitted via: ExactAudioCopy v0.95a5
#
DISCID=180e3a15
DTITLE=Lonnie Donnegan - Putting on the Country Style
DYEAR=1900
DGENRE=Country
TTITLE0=Rock Island Line
TTITLE1=Battle of New Orleans
TTITLE2=Wabash Cannonball
TTITLE3=Nobody's Child
TTITLE4=Wreck of The Old 97
TTITLE5=My Dixie Darlin'
TTITLE6=Jimmy Brown The Newsboy
TTITLE7=The Gold Rush Is Over
TTITLE8=Talking Guitar Blues
TTITLE9=John Hardy
TTITLE10=Fort Worth Jail
TTITLE11=Wedding Bells
TTITLE12=Rev.Mr Black
TTITLE13=Love is Strange
TTITLE14=Beyond The Sunset
TTITLE15=Keep on the Sunnyside
TTITLE16=500 Miles From Home
TTITLE17=There's A Big Wheel
TTITLE18=Louisiana Man
TTITLE19=Muleskinner Blues-Live
TTITLE20=Worrried Man
EXTD=
EXTT0=
EXTT1=
EXTT2=
EXTT3=
EXTT4=
EXTT5=
EXTT6=
EXTT7=
EXTT8=
EXTT9=
EXTT10=
EXTT11=
EXTT12=
EXTT13=
EXTT14=
EXTT15=
EXTT16=
EXTT17=
EXTT18=
EXTT19=
EXTT20=
PLAYORDER=
